<?xml version="1.0" encoding="utf-8"?>
<!-- Created by Dikla - 2020 - Creative Common License-->
<!-- https://creativecommons.org/licenses/by/4.0/legalcode -->
<!DOCTYPE svg PUBLIC "-//W3C//DTD SVG 1.1//EN" "http://www.w3.org/Graphics/SVG/1.1/DTD/svg11.dtd">
<svg version="1.1" xmlns="http://www.w3.org/2000/svg" xmlns:xlink="http://www.w3.org/1999/xlink" x="0px" y="0px"
	width="400px" height="400px" viewBox="0 0 400 400" enable-background="new 0 0 400 400" xml:space="preserve">
	<path fill="#404040" d="M378.9,85.2c63.3,100.6-53.4,307.5-176.2,309.8C71.9,397.6-37.5,192.1,22.5,87.1C70.3,3.2,177,7.7,202,7.8
		C228.5,8.1,327.6,3.8,378.9,85.2z"/>
	<path fill="#0000FF" d="M201,38.9c33.7-19.4,75.7-23.5,114.4-7.7c66.6,27.3,98.5,103.4,71.2,170c-11.4,27.8-31.3,49.6-55.6,63.6"/>
	<path fill="#00FF00" d="M331.1,264.8c0,16.4-3.2,33.1-9.8,49.2c-27.3,66.6-103.4,98.5-170,71.2c-50-20.5-80.4-68.4-81-119.2
		c0-0.5,0-1.1,0-1.6"/>
	<path fill="#FF0000" d="M70.4,264.5C14.8,232.4-10,163.4,15,102.3C42.3,35.7,118.4,3.8,185,31.1c5.6,2.3,10.9,4.9,15.9,7.8"/>
	<path fill="#FFFF00" d="M200.7,264.7C167,284,125,288.2,86.3,272.3c-5.6-2.3-10.9-4.9-15.9-7.8l0,0c0-16.4,3.1-33.1,9.7-49.2
		c11.4-27.9,31.3-49.6,55.6-63.6"/>
	<path fill="#FF00FF" d="M135.7,153.3c-0.2-16.9,2.9-34.2,9.7-50.8c11.4-27.9,31.4-49.6,55.6-63.6l0,0c40.9,23.6,65.1,67.2,65.1,112.9"
		/>
	<path fill="#00FFFF" d="M266,151.9c40.9,23.6,65.1,67.2,65.1,113l0,0c-33.7,19.4-75.7,23.5-114.4,7.7c-5.6-2.3-10.9-4.9-15.9-7.8"/>
	<path fill="#FFFFFF" d="M266,151.9c0,16.4-3.1,33.1-9.7,49.2c-11.4,27.9-31.4,49.6-55.6,63.6l0,0c-40.4-23.3-64.5-66.2-65-111.4l0-1.6
		c33.7-19.4,75.7-23.5,114.4-7.7C255.7,146.3,261,148.9,266,151.9L266,151.9z"/>
</svg>
